<svg width="867" height="298" viewBox="0 0 867 298" fill="none" xmlns="http://www.w3.org/2000/svg">
<g clip-path="url(#clip0_287_2)">
<path d="M107.262 160.516V156.705H159.564C165.882 156.705 169.843 163.625 166.484 168.941C163.124 174.256 159.614 181.026 155.903 190.604C145.523 217.532 137.048 245.814 127.47 273.344C125.665 278.459 123.86 283.574 122.004 288.689C120.049 294.104 114.934 297.765 109.117 297.765H92.5689C89.1088 297.765 85.9998 295.508 84.9468 292.249L44.3789 167.236C42.6739 162.071 46.5352 156.705 52.001 156.705H71.608C76.6226 156.705 80.0325 161.268 79.3806 166.283V166.784C79.0797 169.292 79.9823 171.849 80.5339 174.156C80.5339 174.156 85.5485 190.554 92.3182 212.768C92.9199 214.874 93.5718 217.03 94.2237 219.187C99.0878 235.283 104.654 253.587 109.869 270.686C111.123 274.899 116.388 274.648 117.291 270.385C123.408 241.552 141.812 205.597 132.736 180.875C127.771 167.286 117.291 163.124 107.211 160.617" fill="white"/>
<path d="M60.4252 137.199V141.01H8.12328C1.80493 141.01 -2.15658 134.09 1.20318 128.774C4.56294 123.459 8.07314 116.689 11.7839 107.111C22.1641 80.183 30.6387 51.9008 40.2165 24.3708C42.0218 19.2559 43.827 14.1411 45.6824 9.02622C47.6381 3.66063 52.7529 0 58.5698 0H75.1179C78.578 0 81.687 2.25656 82.7401 5.51603L123.308 130.529C125.013 135.694 121.152 141.06 115.686 141.06H96.0788C91.0642 141.06 87.6543 136.497 88.3062 131.482V130.981C88.6071 128.473 87.7045 125.916 87.1529 123.609C87.1529 123.609 82.1383 107.211 75.3686 84.9969C74.7669 82.8908 74.115 80.7346 73.4631 78.5783C68.599 62.4815 63.0328 44.1783 57.8177 27.0787C56.564 22.8664 51.2987 23.1172 50.3961 27.3795C44.2783 56.2133 25.8749 92.1678 34.9512 116.89C39.9156 130.479 50.3961 134.641 60.4754 137.148" fill="white"/>
</g>
<path d="M222.557 134.088V86.8148H229.712V128.137H250.239V134.088H222.557ZM277.681 134.088V86.8148H305.43V92.5651H284.836V107.543H303.959V113.159H284.836V128.27H306.968V134.088H277.681ZM347.278 134.89C341.75 134.89 337.114 133.887 333.37 131.881L335.576 126.331C339.499 127.936 343.355 128.739 347.144 128.739C350.175 128.739 352.671 128.181 354.633 127.067C356.639 125.953 357.642 124.192 357.642 121.785C357.642 119.868 356.839 118.219 355.235 116.837C353.674 115.455 351.758 114.296 349.484 113.36C347.255 112.379 345.027 111.332 342.798 110.217C340.569 109.103 338.652 107.543 337.048 105.537C335.487 103.486 334.707 101.012 334.707 98.1148C334.707 94.2812 336.134 91.3392 338.987 89.2887C341.839 87.2382 345.361 86.213 349.551 86.213C353.964 86.213 358.11 87.0599 361.988 88.7538L359.982 93.9692C356.237 92.7211 352.827 92.097 349.752 92.097C347.211 92.097 345.205 92.5874 343.734 93.568C342.307 94.5487 341.594 95.9974 341.594 97.9142C341.594 99.6081 342.374 101.124 343.935 102.461C345.539 103.754 347.478 104.913 349.752 105.938C352.025 106.963 354.298 108.078 356.572 109.281C358.89 110.44 360.829 112.045 362.389 114.095C363.994 116.146 364.796 118.575 364.796 121.383C364.796 125.841 363.124 129.207 359.781 131.48C356.483 133.753 352.315 134.89 347.278 134.89ZM439.487 134.088L423.373 86.8148H435.342L447.043 125.596L460.951 86.8148H472.518L454.131 134.088H439.487ZM519.101 134.89C510.944 134.89 504.77 132.75 500.58 128.471C496.434 124.147 494.361 118.107 494.361 110.351C494.361 102.862 496.679 96.9558 501.315 92.6319C505.996 88.2635 512.348 86.0793 520.372 86.0793C528.618 86.0793 534.77 88.2858 538.826 92.6988C542.927 97.1118 544.977 103.04 544.977 110.485C544.977 118.107 542.749 124.08 538.291 128.404C533.833 132.728 527.437 134.89 519.101 134.89ZM519.302 125.93C524.25 125.93 527.838 124.548 530.067 121.785C532.296 118.976 533.41 115.187 533.41 110.418C533.41 105.737 532.273 102.015 530 99.2515C527.771 96.4432 524.361 95.039 519.77 95.039C515 95.039 511.479 96.4209 509.205 99.1846C506.976 101.948 505.862 105.648 505.862 110.284C505.862 114.92 506.954 118.687 509.138 121.584C511.367 124.482 514.755 125.93 519.302 125.93ZM582.671 134.088V118.91L565.22 86.8148H578.325L588.756 109.348L599.855 86.8148H612.626L594.038 118.508V134.088H582.671ZM628.718 134.088L646.905 86.8148H661.549L677.462 134.088H665.694L661.214 120.247H645.234L640.085 134.088H628.718ZM648.243 112.023H658.54L653.792 93.8355L648.243 112.023ZM725.05 134.756C716.937 134.756 710.585 132.75 705.993 128.739C701.402 124.727 699.106 118.731 699.106 110.752C699.106 102.327 701.335 96.1312 705.793 92.1639C710.25 88.152 716.848 86.1461 725.585 86.1461C730.354 86.1461 735.079 87.1045 739.76 89.0213L736.751 97.2456C734.745 96.7552 733.385 96.4209 732.672 96.2426C732.004 96.0643 731.001 95.9083 729.663 95.7745C728.326 95.5962 726.9 95.5071 725.384 95.5071C720.882 95.5071 717.293 96.6884 714.619 99.0509C711.989 101.413 710.674 105.091 710.674 110.083C710.674 115.076 712.123 118.865 715.02 121.45C717.918 123.991 721.662 125.262 726.253 125.262C726.61 125.262 727.122 125.262 727.791 125.262C728.46 125.217 728.95 125.195 729.262 125.195V110.685H740.629V132.015C735.904 133.842 730.711 134.756 725.05 134.756ZM770.609 134.088V86.8148H801.634V95.7077H781.976V106.205H800.163V114.496H781.976V125.195H803.172V134.088H770.609ZM844.178 134.823C837.67 134.823 832.388 133.709 828.332 131.48L831.541 123.323C835.642 124.749 839.81 125.462 844.045 125.462C849.572 125.462 852.336 123.924 852.336 120.849C852.336 119.69 851.779 118.642 850.664 117.706C849.55 116.77 848.168 116.012 846.519 115.433C844.869 114.809 843.064 114.051 841.103 113.159C839.141 112.223 837.336 111.242 835.687 110.217C834.037 109.192 832.656 107.721 831.541 105.804C830.427 103.887 829.87 101.681 829.87 99.1846C829.87 94.9499 831.541 91.7181 834.884 89.4893C838.228 87.2605 842.217 86.1461 846.853 86.1461C849.171 86.1461 851.311 86.3244 853.272 86.681C855.278 87.0376 856.749 87.3942 857.685 87.7509C858.666 88.1075 859.981 88.6424 861.63 89.3556L858.354 97.2456C853.851 95.9528 850.129 95.3065 847.187 95.3065C843.042 95.3065 840.969 96.5769 840.969 99.1177C840.969 100.098 841.526 101.012 842.641 101.859C843.8 102.706 845.226 103.464 846.92 104.133C848.614 104.757 850.441 105.559 852.403 106.54C854.364 107.476 856.192 108.501 857.886 109.615C859.579 110.73 860.984 112.223 862.098 114.095C863.257 115.967 863.836 118.085 863.836 120.447C863.836 122.944 863.279 125.15 862.165 127.067C861.05 128.939 859.535 130.432 857.618 131.547C855.746 132.661 853.673 133.486 851.4 134.021C849.126 134.556 846.719 134.823 844.178 134.823Z" fill="white"/>
<path d="M222.557 201.678V154.405H250.306V160.155H229.712V175.133H248.835V180.749H229.712V195.861H251.844V201.678H222.557ZM281.991 201.678V154.405H291.419L313.885 194.055L313.617 188.305V154.405H320.906V201.678H310.876L288.878 162.696L289.145 167.978V201.678H281.991ZM418.293 201.678L436.48 154.405H451.123L467.036 201.678H455.268L450.788 187.837H434.808L429.659 201.678H418.293ZM437.817 179.613H448.114L443.367 161.426L437.817 179.613ZM535.036 202.547C530.845 202.324 527.346 201.299 524.538 199.471C521.73 197.644 518.832 194.991 515.846 191.515L510.497 185.296C509.962 185.341 509.115 185.363 507.956 185.363H504.479V201.678H493.045V154.405H511.433C517.005 154.405 521.44 155.72 524.739 158.35C528.037 160.935 529.686 164.769 529.686 169.851C529.686 175.467 527.146 179.724 522.064 182.622L526.878 187.837C529.508 190.69 533.074 192.696 537.576 193.855L535.036 202.547ZM504.479 177.406H508.357C514.776 177.406 517.985 174.977 517.985 170.118C517.985 167.711 517.384 165.995 516.18 164.969C515.021 163.9 512.948 163.365 509.962 163.365H504.479V177.406ZM570.869 201.678V163.298H556.025V154.405H597.08V163.298H582.236V201.678H570.869Z" fill="white"/>
<defs>
<clipPath id="clip0_287_2">
<rect width="167.737" height="297.765" fill="white"/>
</clipPath>
</defs>
</svg>
