<svg width="1216" height="354" viewBox="0 0 1216 354" fill="none" xmlns="http://www.w3.org/2000/svg">
<g clip-path="url(#clip0_127_245)">
<path d="M127.728 190.663V186.15H189.673C197.156 186.15 201.848 194.346 197.869 200.641C193.89 206.936 189.732 214.954 185.337 226.298C173.043 258.191 163.006 291.687 151.663 324.293C149.524 330.351 147.386 336.409 145.189 342.467C142.873 348.881 136.815 353.216 129.925 353.216H110.326C106.229 353.216 102.546 350.544 101.299 346.683L53.2518 198.622C51.2325 192.504 55.8056 186.15 62.2792 186.15H85.5011C91.4402 186.15 95.4788 191.554 94.7067 197.493V198.087C94.3503 201.057 95.4194 204.086 96.0727 206.818C96.0727 206.818 102.012 226.239 110.03 252.549C110.742 255.043 111.514 257.597 112.286 260.151C118.047 279.215 124.64 300.893 130.816 321.145C132.301 326.134 138.537 325.837 139.606 320.789C146.852 286.639 168.648 244.056 157.899 214.776C152.019 198.681 139.606 193.752 127.669 190.782" fill="url(#paint0_radial_127_245)"/>
<path d="M72.2571 163.047V167.56H10.3124C2.82916 167.56 -1.86273 159.365 2.11647 153.069C6.09566 146.774 10.253 138.756 14.6479 127.412C26.9419 95.5193 36.9789 62.0228 48.3226 29.4172C50.4607 23.3593 52.5987 17.3015 54.7962 11.2436C57.1124 4.88876 63.1703 0.553223 70.0597 0.553223H89.6587C93.7566 0.553223 97.4389 3.22581 98.6861 7.08622L146.733 155.148C148.753 161.265 144.18 167.62 137.706 167.62H114.484C108.545 167.62 104.506 162.215 105.278 156.276V155.682C105.635 152.713 104.566 149.684 103.912 146.952C103.912 146.952 97.9734 127.531 89.9556 101.221C89.2429 98.7264 88.4708 96.1726 87.6988 93.6188C81.9379 74.5543 75.3455 52.8766 69.1688 32.6243C67.684 27.6355 61.448 27.9324 60.379 32.9807C53.1333 67.1304 31.3368 109.714 42.0865 138.993C47.9662 155.088 60.379 160.018 72.3165 162.987" fill="url(#paint1_radial_127_245)"/>
</g>
<path d="M279.055 154.75V86.0212H289.457V146.098H319.301V154.75H279.055ZM359.198 154.75V86.0212H399.542V94.3814H369.6V116.157H397.403V124.323H369.6V146.293H401.777V154.75H359.198ZM460.384 155.917C452.347 155.917 445.607 154.459 440.163 151.542L443.371 143.474C449.074 145.807 454.68 146.973 460.189 146.973C464.596 146.973 468.225 146.163 471.077 144.543C473.993 142.923 475.451 140.363 475.451 136.863C475.451 134.076 474.285 131.679 471.952 129.669C469.683 127.66 466.897 125.975 463.592 124.614C460.351 123.189 457.111 121.666 453.87 120.045C450.63 118.425 447.843 116.157 445.51 113.241C443.242 110.259 442.108 106.663 442.108 102.45C442.108 96.8765 444.181 92.5992 448.329 89.618C452.477 86.6369 457.597 85.1463 463.689 85.1463C470.105 85.1463 476.132 86.3776 481.77 88.8403L478.854 96.4229C473.41 94.6083 468.452 93.7009 463.98 93.7009C460.286 93.7009 457.37 94.4138 455.231 95.8396C453.157 97.2654 452.12 99.3717 452.12 102.158C452.12 104.621 453.255 106.825 455.523 108.769C457.856 110.648 460.675 112.333 463.98 113.824C467.286 115.314 470.591 116.935 473.896 118.684C477.266 120.37 480.085 122.703 482.353 125.684C484.687 128.665 485.853 132.197 485.853 136.28C485.853 142.761 483.423 147.654 478.562 150.959C473.766 154.264 467.707 155.917 460.384 155.917ZM594.445 154.75L571.017 86.0212H588.418L605.43 142.404L625.65 86.0212H642.468L615.735 154.75H594.445ZM710.194 155.917C698.334 155.917 689.358 152.806 683.266 146.584C677.239 140.298 674.225 131.517 674.225 120.24C674.225 109.352 677.595 100.765 684.335 94.4786C691.14 88.1274 700.376 84.9518 712.041 84.9518C724.03 84.9518 732.974 88.1598 738.872 94.5759C744.834 100.992 747.815 109.611 747.815 120.434C747.815 131.517 744.575 140.201 738.094 146.487C731.613 152.774 722.313 155.917 710.194 155.917ZM710.486 142.89C717.679 142.89 722.896 140.881 726.137 136.863C729.377 132.78 730.997 127.272 730.997 120.337C730.997 113.532 729.345 108.121 726.04 104.103C722.799 100.02 717.841 97.9783 711.166 97.9783C704.232 97.9783 699.112 99.9873 695.807 104.005C692.566 108.024 690.946 113.403 690.946 120.143C690.946 126.883 692.534 132.359 695.709 136.572C698.95 140.784 703.875 142.89 710.486 142.89ZM802.617 154.75V132.683L777.245 86.0212H796.298L811.463 118.782L827.601 86.0212H846.168L819.143 132.1V154.75H802.617ZM869.564 154.75L896.006 86.0212H917.296L940.432 154.75H923.323L916.809 134.627H893.576L886.09 154.75H869.564ZM897.95 122.67H912.921L906.019 96.2285L897.95 122.67ZM1009.62 155.722C997.823 155.722 988.588 152.806 981.913 146.973C975.238 141.141 971.9 132.424 971.9 120.823C971.9 108.574 975.14 99.5661 981.621 93.7982C988.102 87.9654 997.694 85.0491 1010.4 85.0491C1017.33 85.0491 1024.2 86.4424 1031.01 89.2292L1026.63 101.186C1023.71 100.473 1021.74 99.9873 1020.7 99.7281C1019.73 99.4689 1018.27 99.242 1016.33 99.0476C1014.38 98.7884 1012.31 98.6588 1010.1 98.6588C1003.56 98.6588 998.342 100.376 994.453 103.811C990.63 107.246 988.718 112.593 988.718 119.851C988.718 127.11 990.824 132.618 995.036 136.377C999.249 140.071 1004.69 141.918 1011.37 141.918C1011.89 141.918 1012.63 141.918 1013.6 141.918C1014.58 141.853 1015.29 141.821 1015.74 141.821V120.726H1032.27V151.737C1025.4 154.394 1017.85 155.722 1009.62 155.722ZM1075.86 154.75V86.0212H1120.96V98.9504H1092.38V114.213H1118.82V126.267H1092.38V141.821H1123.2V154.75H1075.86ZM1182.82 155.82C1173.36 155.82 1165.68 154.199 1159.78 150.959L1164.44 139.099C1170.41 141.173 1176.47 142.21 1182.62 142.21C1190.66 142.21 1194.68 139.974 1194.68 135.502C1194.68 133.817 1193.87 132.294 1192.25 130.933C1190.63 129.572 1188.62 128.471 1186.22 127.628C1183.82 126.721 1181.2 125.619 1178.35 124.323C1175.49 122.962 1172.87 121.536 1170.47 120.045C1168.07 118.555 1166.06 116.416 1164.44 113.629C1162.82 110.843 1162.01 107.635 1162.01 104.005C1162.01 97.8487 1164.44 93.1501 1169.3 89.9097C1174.17 86.6693 1179.97 85.0491 1186.71 85.0491C1190.08 85.0491 1193.19 85.3083 1196.04 85.8267C1198.95 86.3452 1201.09 86.8637 1202.45 87.3821C1203.88 87.9006 1205.79 88.6783 1208.19 89.7152L1203.43 101.186C1196.88 99.3069 1191.47 98.3671 1187.19 98.3671C1181.16 98.3671 1178.15 100.214 1178.15 103.908C1178.15 105.334 1178.96 106.663 1180.58 107.894C1182.27 109.125 1184.34 110.227 1186.8 111.199C1189.27 112.106 1191.92 113.273 1194.77 114.699C1197.63 116.06 1200.28 117.55 1202.75 119.171C1205.21 120.791 1207.25 122.962 1208.87 125.684C1210.56 128.406 1211.4 131.484 1211.4 134.919C1211.4 138.548 1210.59 141.756 1208.97 144.543C1207.35 147.265 1205.14 149.436 1202.36 151.056C1199.63 152.676 1196.62 153.875 1193.32 154.653C1190.01 155.431 1186.51 155.82 1182.82 155.82Z" fill="url(#paint2_radial_127_245)"/>
<path d="M279.055 253.018V184.289H319.398V192.649H289.457V214.425H317.26V222.591H289.457V244.561H321.634V253.018H279.055ZM365.464 253.018V184.289H379.171L411.834 241.936L411.445 233.576V184.289H422.042V253.018H407.46L375.477 196.344L375.866 204.023V253.018H365.464ZM563.631 253.018L590.072 184.289H611.362L634.498 253.018H617.389L610.876 232.895H587.642L580.157 253.018H563.631ZM592.017 220.938H606.987L600.085 194.497L592.017 220.938ZM733.361 254.282C727.269 253.958 722.181 252.467 718.099 249.81C714.016 247.153 709.803 243.297 705.461 238.242L697.684 229.201C696.906 229.266 695.675 229.299 693.99 229.299H688.935V253.018H672.312V184.289H699.045C707.146 184.289 713.594 186.201 718.39 190.025C723.186 193.784 725.584 199.357 725.584 206.745C725.584 214.911 721.89 221.1 714.502 225.313L721.501 232.895C725.325 237.043 730.509 239.959 737.055 241.644L733.361 254.282ZM688.935 217.73H694.573C703.906 217.73 708.572 214.198 708.572 207.134C708.572 203.634 707.697 201.139 705.947 199.649C704.262 198.093 701.248 197.316 696.906 197.316H688.935V217.73ZM785.458 253.018V197.218H763.877V184.289H823.565V197.218H801.984V253.018H785.458Z" fill="url(#paint3_radial_127_245)"/>
<defs>
<radialGradient id="paint0_radial_127_245" cx="0" cy="0" r="1" gradientUnits="userSpaceOnUse" gradientTransform="translate(126.044 269.683) rotate(90) scale(83.5333 73.2748)">
<stop stop-color="#233D4D"/>
<stop offset="1" stop-color="#152D3C"/>
</radialGradient>
<radialGradient id="paint1_radial_127_245" cx="0" cy="0" r="1" gradientUnits="userSpaceOnUse" gradientTransform="translate(73.9408 84.0865) rotate(90) scale(83.5333 73.2748)">
<stop stop-color="#233D4D"/>
<stop offset="1" stop-color="#152D3C"/>
</radialGradient>
<radialGradient id="paint2_radial_127_245" cx="0" cy="0" r="1" gradientUnits="userSpaceOnUse" gradientTransform="translate(742.433 127.75) rotate(90) scale(61 473.293)">
<stop stop-color="#233D4D"/>
<stop offset="1" stop-color="#152D3C"/>
</radialGradient>
<radialGradient id="paint3_radial_127_245" cx="0" cy="0" r="1" gradientUnits="userSpaceOnUse" gradientTransform="translate(547.14 226.018) rotate(90) scale(61 278)">
<stop stop-color="#233D4D"/>
<stop offset="1" stop-color="#152D3C"/>
</radialGradient>
<clipPath id="clip0_127_245">
<rect width="198.663" height="352.663" fill="white" transform="translate(0.690918 0.552734)"/>
</clipPath>
</defs>
</svg>
