<svg width="408" height="408" viewBox="0 0 408 408" fill="none" xmlns="http://www.w3.org/2000/svg">
<rect width="408" height="408" rx="64" fill="#105882"/>
<path d="M227 215.516V211.705H279.302C285.62 211.705 289.582 218.625 286.222 223.941C282.862 229.256 279.352 236.026 275.641 245.604C265.261 272.532 256.786 300.814 247.209 328.344C245.403 333.459 243.598 338.574 241.743 343.689C239.787 349.104 234.672 352.765 228.855 352.765H212.307C208.847 352.765 205.738 350.508 204.685 347.249L164.117 222.236C162.412 217.071 166.273 211.705 171.739 211.705H191.346C196.361 211.705 199.771 216.268 199.119 221.283V221.784C198.818 224.292 199.721 226.849 200.272 229.156C200.272 229.156 205.287 245.554 212.056 267.768C212.658 269.874 213.31 272.03 213.962 274.187C218.826 290.283 224.392 308.587 229.607 325.686C230.861 329.899 236.126 329.648 237.029 325.385C243.147 296.552 261.55 260.597 252.474 235.875C247.509 222.286 237.029 218.124 226.95 215.617" fill="white"/>
<path d="M180.164 192.199V196.01H127.862C121.543 196.01 117.582 189.09 120.941 183.774C124.301 178.459 127.811 171.689 131.522 162.111C141.902 135.183 150.377 106.901 159.955 79.3708C161.76 74.2559 163.565 69.1411 165.421 64.0262C167.376 58.6606 172.491 55 178.308 55H194.856C198.316 55 201.425 57.2566 202.478 60.516L243.046 185.529C244.751 190.694 240.89 196.06 235.424 196.06H215.817C210.803 196.06 207.393 191.497 208.045 186.482V185.981C208.345 183.473 207.443 180.916 206.891 178.609C206.891 178.609 201.877 162.211 195.107 139.997C194.505 137.891 193.853 135.735 193.201 133.578C188.337 117.482 182.771 99.1783 177.556 82.0787C176.302 77.8664 171.037 78.1172 170.134 82.3795C164.017 111.213 145.613 147.168 154.69 171.89C159.654 185.479 170.134 189.641 180.214 192.148" fill="white"/>
</svg>
