<svg width="335" height="437" viewBox="0 0 335 437" fill="none" xmlns="http://www.w3.org/2000/svg">
<path d="M442.615 -0.726498L447.026 436.254H135.359C130.431 436.254 127.097 431.761 127.774 426.88C127.822 426.88 127.774 426.445 127.822 426.397C127.967 424.996 127.774 423.595 127.436 422.242C127.194 421.178 126.904 420.115 126.662 419.149C126.662 419.149 121.782 403.107 115.162 381.363C114.872 380.348 114.534 379.333 114.196 378.27C113.906 377.207 113.616 376.144 113.278 375.081C112.07 371.167 110.862 367.108 109.557 362.952C107.769 356.912 105.885 350.727 103.952 344.542L97.9601 324.731C96.7038 320.624 91.5818 320.817 90.712 325.021C84.7203 353.24 66.6968 388.417 75.5877 412.626C80.4198 425.962 90.712 429.973 100.569 432.485V436.254H49.3497C43.1647 436.254 39.299 429.49 42.5848 424.271C45.7257 419.294 49.3497 412.481 52.9737 403.058C63.121 376.724 71.4322 349.036 80.8063 322.073C82.5459 317.096 84.3337 312.071 86.1216 307.094C87.0397 304.485 88.6826 302.358 90.7603 300.812L-0.000158411 -0.726498H442.615Z" fill="black"/>
</svg>
