<svg width="304" height="399" viewBox="0 0 304 399" fill="none" xmlns="http://www.w3.org/2000/svg">
<path d="M303.206 418.311L-139.941 419.18V0.000261105H174.287C179.167 0.000261105 182.453 4.39743 181.776 9.18116V9.71269C181.486 12.1287 182.356 14.5931 182.888 16.8158C182.888 16.8158 187.72 32.6166 194.243 54.0225C194.823 56.052 195.451 58.1298 196.079 60.2076C200.766 75.6701 206.13 93.3554 211.155 109.784C212.363 113.843 217.437 113.65 218.307 109.494C224.202 81.7102 241.935 47.0644 233.189 23.2424C228.406 10.1476 218.307 6.13697 208.594 3.67263V0.000261105H258.992C265.081 -0.0480594 268.898 6.62018 265.661 11.7905C262.568 16.6708 259.041 23.3874 255.465 32.6649C245.463 58.613 237.296 85.8657 228.067 112.394C226.328 117.322 224.588 122.203 222.8 127.18C221.737 130.224 219.563 132.737 216.857 134.186L303.206 418.311Z" fill="black"/>
</svg>
